<?xml version="1.0" encoding="UTF-8" standalone="no"?>
<!DOCTYPE svg PUBLIC "-//W3C//DTD SVG 1.1//EN" "http://www.w3.org/Graphics/SVG/1.1/DTD/svg11.dtd">
<svg width="100%" height="100%" viewBox="0 0 455 455" version="1.1" xmlns="http://www.w3.org/2000/svg" xmlns:xlink="http://www.w3.org/1999/xlink" xml:space="preserve" xmlns:serif="http://www.serif.com/" style="fill-rule:evenodd;clip-rule:evenodd;stroke-linejoin:round;stroke-miterlimit:2;">
    <g transform="matrix(1,0,0,1,-284.578,-284.578)">
        <g transform="matrix(0.707107,0.707107,-0.707107,0.707107,511.01,-212.77)">
            <path d="M587.345,315.084C655.027,315.084 709.895,369.952 709.895,437.634L709.895,585.945L549.276,473.478L549.276,369.452L587.345,315.084Z" style="fill:url(#_Linear1);"/>
            <g transform="matrix(5.55112e-17,1,-1,5.55112e-17,1024.98,-1.39969)">
                <path d="M587.345,315.084C655.027,315.084 709.895,369.952 709.895,437.634L709.895,585.945L549.276,473.478L549.276,369.452L587.345,315.084Z" style="fill:url(#_Linear2);"/>
            </g>
            <g transform="matrix(-1,1.22465e-16,-1.22465e-16,-1,1026.38,1023.58)">
                <path d="M587.345,315.084C655.027,315.084 709.895,369.952 709.895,437.634L709.895,585.945L549.276,473.478L549.276,369.452L587.345,315.084Z" style="fill:url(#_Linear3);"/>
            </g>
            <g transform="matrix(-1.77976e-16,-1,1,-1.77976e-16,1.39969,1024.98)">
                <path d="M587.345,315.084C655.027,315.084 709.895,369.952 709.895,437.634L709.895,585.945L549.276,473.478L549.276,369.452L587.345,315.084Z" style="fill:url(#_Linear4);"/>
            </g>
        </g>
    </g>
    <defs>
        <linearGradient id="_Linear1" x1="0" y1="0" x2="1" y2="0" gradientUnits="userSpaceOnUse" gradientTransform="matrix(160.619,0,0,160.619,549.276,437.635)">
            <stop offset="0" style="stop-color:rgb(176,176,176);stop-opacity:1"/> <!-- Invertido: 79 -> 176 -->
            <stop offset="1" style="stop-color:rgb(215,215,215);stop-opacity:1"/> <!-- Invertido: 40 -> 215 -->
            </linearGradient>
            <linearGradient id="_Linear2" x1="0" y1="0" x2="1" y2="0" gradientUnits="userSpaceOnUse" gradientTransform="matrix(160.619,0,0,160.619,549.276,437.635)">
                <stop offset="0" style="stop-color:rgb(176,176,176);stop-opacity:1"/> <!-- Invertido: 79 -> 176 -->
            <stop offset="1" style="stop-color:rgb(215,215,213);stop-opacity:1"/> <!-- Invertido: 40 -> 215, 42 -> 213 -->
            </linearGradient>
            <linearGradient id="_Linear3" x1="0" y1="0" x2="1" y2="0" gradientUnits="userSpaceOnUse" gradientTransform="matrix(160.619,0,0,160.619,549.276,437.635)">
                <stop offset="0" style="stop-color:rgb(176,176,176);stop-opacity:1"/> <!-- Invertido: 79 -> 176 -->
            <stop offset="1" style="stop-color:rgb(215,215,213);stop-opacity:1"/> <!-- Invertido: 40 -> 215, 42 -> 213 -->
            </linearGradient>
            <linearGradient id="_Linear4" x1="0" y1="0" x2="1" y2="0" gradientUnits="userSpaceOnUse" gradientTransform="matrix(160.619,0,0,160.619,549.276,437.635)">
                <stop offset="0" style="stop-color:rgb(176,176,176);stop-opacity:1"/> <!-- Invertido: 79 -> 176 -->
            <stop offset="1" style="stop-color:rgb(215,215,213);stop-opacity:1"/> <!-- Invertido: 40 -> 215, 42 -> 213 -->
            </linearGradient>
        </defs>
    </svg>
